<?xml version="1.0" encoding="UTF-8" standalone="no"?>
<!-- Created with Inkscape (http://www.inkscape.org/) -->

<svg
   width="64pt"
   height="64pt"
   viewBox="0 0 22.577778 22.577778"
   version="1.1"
   id="svg831"
   inkscape:version="1.1.1 (3bf5ae0d25, 2021-09-20)"
   sodipodi:docname="Export - Unblash - 64px.svg"
   inkscape:export-filename="C:\Users\User\Desktop\CARLOS PROJECT\6. JUNI 2\DONE\EXPANDED\06 - Railway.png"
   inkscape:export-xdpi="576"
   inkscape:export-ydpi="576"
   xmlns:inkscape="http://www.inkscape.org/namespaces/inkscape"
   xmlns:sodipodi="http://sodipodi.sourceforge.net/DTD/sodipodi-0.dtd"
   xmlns="http://www.w3.org/2000/svg"
   xmlns:svg="http://www.w3.org/2000/svg"
   xmlns:rdf="http://www.w3.org/1999/02/22-rdf-syntax-ns#"
   xmlns:cc="http://creativecommons.org/ns#"
   xmlns:dc="http://purl.org/dc/elements/1.1/">
  <defs
     id="defs825">
    <pattern
       id="EMFhbasepattern"
       patternUnits="userSpaceOnUse"
       width="6"
       height="6"
       x="0"
       y="0" />
    <pattern
       id="EMFhbasepattern-9"
       patternUnits="userSpaceOnUse"
       width="6"
       height="6"
       x="0"
       y="0" />
    <pattern
       id="EMFhbasepattern-0"
       patternUnits="userSpaceOnUse"
       width="6"
       height="6"
       x="0"
       y="0" />
    <pattern
       id="EMFhbasepattern-7"
       patternUnits="userSpaceOnUse"
       width="6"
       height="6"
       x="0"
       y="0" />
    <pattern
       id="EMFhbasepattern-2"
       patternUnits="userSpaceOnUse"
       width="6"
       height="6"
       x="0"
       y="0" />
    <pattern
       id="EMFhbasepattern-98"
       patternUnits="userSpaceOnUse"
       width="6"
       height="6"
       x="0"
       y="0" />
    <pattern
       id="EMFhbasepattern-6"
       patternUnits="userSpaceOnUse"
       width="6"
       height="6"
       x="0"
       y="0" />
    <pattern
       id="EMFhbasepattern-01"
       patternUnits="userSpaceOnUse"
       width="6"
       height="6"
       x="0"
       y="0" />
    <pattern
       id="EMFhbasepattern-07"
       patternUnits="userSpaceOnUse"
       width="6"
       height="6"
       x="0"
       y="0" />
    <pattern
       id="EMFhbasepattern-8"
       patternUnits="userSpaceOnUse"
       width="6"
       height="6"
       x="0"
       y="0" />
    <pattern
       id="EMFhbasepattern-4"
       patternUnits="userSpaceOnUse"
       width="6"
       height="6"
       x="0"
       y="0" />
    <pattern
       id="EMFhbasepattern-40"
       patternUnits="userSpaceOnUse"
       width="6"
       height="6"
       x="0"
       y="0" />
    <pattern
       id="EMFhbasepattern-08"
       patternUnits="userSpaceOnUse"
       width="6"
       height="6"
       x="0"
       y="0" />
    <pattern
       id="EMFhbasepattern-04"
       patternUnits="userSpaceOnUse"
       width="6"
       height="6"
       x="0"
       y="0" />
    <pattern
       id="EMFhbasepattern-014"
       patternUnits="userSpaceOnUse"
       width="6"
       height="6"
       x="0"
       y="0" />
    <pattern
       id="EMFhbasepattern-27"
       patternUnits="userSpaceOnUse"
       width="6"
       height="6"
       x="0"
       y="0" />
    <pattern
       id="EMFhbasepattern-09"
       patternUnits="userSpaceOnUse"
       width="6"
       height="6"
       x="0"
       y="0" />
    <pattern
       id="EMFhbasepattern-5"
       patternUnits="userSpaceOnUse"
       width="6"
       height="6"
       x="0"
       y="0" />
    <pattern
       id="EMFhbasepattern-018"
       patternUnits="userSpaceOnUse"
       width="6"
       height="6"
       x="0"
       y="0" />
  </defs>
  <sodipodi:namedview
     id="base"
     pagecolor="#ffffff"
     bordercolor="#666666"
     borderopacity="1.0"
     inkscape:pageopacity="0.0"
     inkscape:pageshadow="2"
     inkscape:zoom="9.3164063"
     inkscape:cx="38.212159"
     inkscape:cy="42.666666"
     inkscape:document-units="pt"
     inkscape:current-layer="layer1"
     showgrid="false"
     units="pt"
     inkscape:window-width="1920"
     inkscape:window-height="1001"
     inkscape:window-x="-9"
     inkscape:window-y="-9"
     inkscape:window-maximized="1"
     inkscape:pagecheckerboard="true"
     inkscape:showpageshadow="false"
     inkscape:object-paths="true"
     inkscape:snap-intersection-paths="true"
     inkscape:snap-smooth-nodes="true"
     inkscape:snap-midpoints="true"
     showguides="true"
     inkscape:snap-bbox="true"
     inkscape:bbox-nodes="true"
     inkscape:snap-nodes="false"
     inkscape:snap-global="true"
     inkscape:snap-others="false">
    <inkscape:grid
       type="xygrid"
       id="grid1378" />
    <sodipodi:guide
       position="0.97013831,21.607643"
       orientation="78.000048,0"
       id="guide1380"
       inkscape:locked="false" />
    <sodipodi:guide
       position="0.97013831,0.97013129"
       orientation="0,78.000005"
       id="guide1382"
       inkscape:locked="false" />
    <sodipodi:guide
       position="21.607639,0.97013129"
       orientation="-78.000048,0"
       id="guide1384"
       inkscape:locked="false" />
    <sodipodi:guide
       position="21.607639,21.607643"
       orientation="0,-78.000005"
       id="guide1386"
       inkscape:locked="false" />
  </sodipodi:namedview>
  <metadata
     id="metadata828">
    <rdf:RDF>
      <cc:Work
         rdf:about="">
        <dc:format>image/svg+xml</dc:format>
        <dc:type
           rdf:resource="http://purl.org/dc/dcmitype/StillImage" />
      </cc:Work>
    </rdf:RDF>
  </metadata>
  <g
     inkscape:label="Icon"
     inkscape:groupmode="layer"
     id="layer1"
     transform="translate(0,-274.42223)">
    <path
       id="path3363"
       style="color:#000000;display:inline;fill:#000000;stroke-width:1;stroke-linecap:round;stroke-linejoin:round;-inkscape-stroke:none"
       d="m 14.619688,284.54549 h -1.000507 c -0.182816,6.9e-4 -0.33084,0.14873 -0.331552,0.33155 -0.0011,0.18407 0.147467,0.33408 0.331552,0.3348 h 1.000507 v 5.32434 c 0,0.18778 -0.146368,0.33415 -0.334152,0.33415 H 9.0567628 c -0.2180937,-0.76708 -0.9263919,-1.33271 -1.7611278,-1.33271 -0.617548,0 -1.1659198,0.30971 -1.4978358,0.78142 -0.3318934,-0.47187 -0.880155,-0.78142 -1.4978359,-0.78142 -0.8347372,0 -1.5436829,0.56563 -1.7617778,1.33271 H 1.636495 v -1.0005 h 0.6657048 c 0.2273282,0 0.3341505,-0.14659 0.3341505,-0.33156 v -1.49848 h 2.6608701 v 1.3314 c -7.323e-4,0.18485 0.1493068,0.33488 0.3341522,0.33416 0.1838301,-7.4e-4 0.332272,-0.15033 0.3315524,-0.33416 v -0.49863 h 2.496393 l 0.8997418,1.19879 c 0.063166,0.0843 0.1625041,0.13373 0.2678423,0.13327 h 3.9922789 c 0.185355,0.001 0.335892,-0.14945 0.334802,-0.33479 -7.32e-4,-0.18409 -0.150719,-0.33264 -0.334802,-0.33156 H 9.7913775 L 8.894236,288.33948 c -0.063304,-0.084 -0.1626185,-0.13323 -0.267841,-0.13263 h -2.66347 c 8.18e-5,-0.61055 0,-1.21963 0,-1.83069 -7.321e-4,-0.1828 -0.1487451,-0.33082 -0.3315524,-0.33155 H 2.6363503 v -0.16706 c 6.657e-4,-0.18486 -0.1493043,-0.33489 -0.3341505,-0.33416 -0.183831,7.3e-4 -0.3322732,0.15032 -0.3315542,0.33416 v 3.32657 H 1.636495 c -0.3637212,0 -0.66635716,0.302 -0.66635716,0.66571 v 1.0005 c 0,0.36371 0.30263596,0.6657 0.66635716,0.6657 h 0.8405822 c 0.085632,0.92918 0.872506,1.66492 1.8228861,1.66492 0.6176775,0 1.1659425,-0.31078 1.4978359,-0.78339 0.331916,0.47243 0.8802903,0.78339 1.4978358,0.78339 0.950371,0 1.7365887,-0.73576 1.8222363,-1.66492 h 5.1676647 c 0.230354,0 0.443463,-0.0804 0.613046,-0.21388 0.182009,0.19024 0.437185,0.30945 0.718363,0.30945 h 0.518782 c 0.128713,0.88365 0.893547,1.56935 1.811185,1.56935 0.917641,0 1.682473,-0.6857 1.811185,-1.56935 h 0.756069 c 0.600452,0 1.093473,-0.49498 1.093473,-1.09542 v -2.92157 c 0,-0.20344 -0.01378,-0.40629 -0.04096,-0.60719 -9.67e-4,-0.009 -0.0023,-0.017 -0.0039,-0.0254 -0.04397,-0.31165 -0.120242,-0.61849 -0.228187,-0.91535 -0.282706,-0.78094 -0.567139,-1.56118 -0.850347,-2.34166 -0.18402,-0.50607 -0.667456,-0.84254 -1.20594,-0.84254 h -3.661376 c -0.117109,0 -0.229418,0.0201 -0.334152,0.0579 4.6e-5,-0.35321 0,-0.70572 0,-1.05836 0,-0.24215 -0.06584,-0.46931 -0.180079,-0.6657 h 0.572091 c 0.137939,0.38628 0.508666,0.6657 0.940047,0.6657 h 1.997115 c 0.547546,0 1.000507,-0.44971 1.000507,-0.99725 v -1.66622 c 1.4e-5,-0.54754 -0.452947,-0.99726 -1.000494,-0.99726 h -1.997115 c -0.431382,0 -0.802108,0.27944 -0.940049,0.66571 H 3.9684124 c -0.1169649,8e-5 -0.2253111,0.0615 -0.2853977,0.16187 L 2.76572,280.5714 c -0.4519602,0.0949 -0.7950744,0.50067 -0.7950744,0.97906 6.656e-4,0.18281 0.1487384,0.33084 0.3315542,0.33155 0.1838277,7.3e-4 0.3334349,-0.14772 0.3341505,-0.33155 0,-0.18688 0.1424742,-0.33279 0.3289515,-0.33415 H 13.958535 c 0.369412,0.003 0.661153,0.29564 0.661153,0.6657 h -1.000507 c -0.18383,7.3e-4 -0.332272,0.15032 -0.331552,0.33416 3.66e-4,0.18306 0.148485,0.33149 0.331552,0.3322 h 1.000507 v 0.6657 h -1.000507 c -0.18383,7.3e-4 -0.332272,0.15032 -0.331552,0.33416 6.98e-4,0.18281 0.148736,0.33083 0.331552,0.33155 h 1.000507 z m 1.995165,-5.6585 h 1.997114 c 0.187767,0 0.334802,0.14378 0.334802,0.33155 v 1.66622 c 0,0.18776 -0.147035,0.33155 -0.334802,0.33155 h -1.997114 c -0.187769,0 -0.331553,-0.14379 -0.331553,-0.33155 v -1.66622 c 0,-0.18777 0.143784,-0.33155 0.331553,-0.33155 z M 4.1549894,279.5527 h 0.6195482 l 0.574691,0.9979 H 3.5555954 Z m 1.3866697,0 h 1.8066343 l -0.5766408,0.9979 H 6.1182999 Z m 2.5763555,0 h 0.6494515 l 0.5759917,0.9979 h -1.802084 z m 1.4185236,0 h 1.8066338 l -0.576641,0.9979 h -0.653352 z m 2.5737548,0 h 0.652053 l 0.57664,0.9979 h -1.803384 z m 1.420474,0 h 2.086178 v 0.9979 h -1.510838 z m 3.74979,0.49927 c -0.183829,7.3e-4 -0.332271,0.15032 -0.331551,0.33416 6.98e-4,0.18282 0.148736,0.33084 0.331551,0.33155 h 0.665705 c 0.18383,7.3e-4 0.333436,-0.14773 0.334153,-0.33155 7.32e-4,-0.18485 -0.149306,-0.33487 -0.334153,-0.33416 z m -14.0201084,1.83004 c -0.1848462,-7.3e-4 -0.3348729,0.14931 -0.3341505,0.33416 H 1.594236 c -0.1830688,7.3e-4 -0.3311948,0.14912 -0.3315509,0.3322 -6.656e-4,0.18383 0.1477233,0.33343 0.3315509,0.33415 h 1.3320621 v 1.66297 H 1.594236 c -0.1828158,6.9e-4 -0.3308386,0.14873 -0.3315509,0.33155 -9.985e-4,0.18407 0.1474669,0.33408 0.3315509,0.3348 h 1.3320621 c 6.656e-4,0.18382 0.1503228,0.33227 0.3341505,0.33155 0.1828159,-7e-4 0.330842,-0.14874 0.3315543,-0.33155 h 1.4425757 c 6.656e-4,0.18382 0.1503227,0.33227 0.3341531,0.33155 0.1828154,-7e-4 0.3308397,-0.14874 0.3315517,-0.33155 h 1.4425771 c 7.334e-4,0.18382 0.1503238,0.33227 0.3341527,0.33155 0.1828149,-7e-4 0.3308404,-0.14874 0.3315525,-0.33155 h 1.4419266 c 7.322e-4,0.18408 0.1507202,0.33263 0.3348032,0.33155 0.1828149,-7e-4 0.3308391,-0.14874 0.3315524,-0.33155 h 1.2481951 c 0.185103,7.3e-4 0.335239,-0.14971 0.334153,-0.3348 -7.17e-4,-0.18384 -0.150322,-0.33228 -0.334153,-0.33155 H 9.9168479 v -1.66297 h 1.2481951 c 0.184847,7.3e-4 0.334877,-0.14931 0.334153,-0.33415 -3.66e-4,-0.18408 -0.150069,-0.33292 -0.334153,-0.3322 H 9.9168479 c 7.322e-4,-0.18384 -0.1477223,-0.33344 -0.3315524,-0.33416 -0.1850995,-10e-4 -0.3355291,0.14905 -0.3348032,0.33416 H 7.8085657 c 7.321e-4,-0.18384 -0.1477223,-0.33344 -0.3315525,-0.33416 -0.1848453,-7.3e-4 -0.3348761,0.1493 -0.3341527,0.33416 H 5.7002834 c 7.322e-4,-0.18384 -0.1477223,-0.33344 -0.3315517,-0.33416 -0.1848456,-7.3e-4 -0.3348755,0.1493 -0.3341531,0.33416 H 3.5920029 c 6.656e-4,-0.18384 -0.1477233,-0.33344 -0.3315543,-0.33416 z m 0.3315543,1.00051 h 1.4425757 v 1.66297 H 3.5920029 Z m 2.1082805,0 h 1.4425771 v 1.66297 H 5.7002834 Z m 2.1082823,0 h 1.4419266 v 1.66297 H 7.8085657 Z m 7.4742253,6.65577 v -2.16421 h 0.292548 c 0.547541,0 0.997257,-0.45037 0.997257,-0.99792 v -1.3314 c 0,-0.54754 -0.449716,-0.9979 -0.997257,-0.9979 h -0.292546 v -0.16708 c 0,-0.18776 0.146387,-0.33155 0.334152,-0.33155 h 3.661377 c 0.260835,0 0.490753,0.15987 0.579891,0.405 l 0.0338,0.0936 c -0.772071,-10e-4 -1.543757,0 -2.318916,0 -0.183822,-7e-4 -0.333416,0.14773 -0.334151,0.33155 v 1.99776 c -4e-6,0.54754 0.452308,0.99791 0.999857,0.99791 h 2.695324 c 0.01282,0.27501 0.0072,0.54683 0.0072,0.83278 h -0.665705 c -0.363712,0 -0.663099,0.302 -0.663104,0.66571 v 0.33155 c -3e-6,0.54754 0.44971,1.00051 0.997256,1.00051 h 0.331553 v 0.33155 c 0,0.24067 -0.186443,0.42972 -0.427117,0.42972 h -0.782074 c -0.184366,-0.81532 -0.916061,-1.42828 -1.808584,-1.42795 z m 2e-6,-4.82574 h 0.292546 c 0.187766,0 0.331552,0.14444 0.331552,0.33221 v 1.3314 c 0,0.18778 -0.143786,0.33156 -0.331552,0.33156 h -0.292546 v -1.81769 c 8.5e-5,-0.004 8.5e-5,-0.009 0,-0.0129 z m 2.621862,0 h 1.042114 l -0.31985,0.47913 c -0.102152,0.15342 -0.06018,0.36064 0.09361,0.46223 0.152233,0.10089 0.35733,0.0603 0.459624,-0.091 l 0.566239,-0.85033 h 0.388111 l 0.57599,1.58235 c 0.04923,0.13539 0.09067,0.27338 0.124167,0.41281 h -0.863986 l 0.209333,-0.31464 c 0.09994,-0.15278 0.05817,-0.35755 -0.09361,-0.45898 -0.152615,-0.10228 -0.359183,-0.0615 -0.461572,0.091 l -0.455071,0.68261 h -0.930947 c -0.187772,0 -0.334156,-0.14378 -0.334153,-0.33156 z m -6.781868,1.49655 c -0.18383,7.3e-4 -0.332272,0.15032 -0.331552,0.33414 v 1.15133 c -0.197608,0.11637 -0.3322,0.33133 -0.332203,0.57404 -1e-5,0.36372 0.301983,0.66571 0.665705,0.66571 0.363722,0 0.663116,-0.30199 0.663106,-0.66571 -4e-6,-0.24271 -0.133372,-0.45764 -0.330253,-0.57404 v -1.15133 c 7.32e-4,-0.18509 -0.149703,-0.33524 -0.334803,-0.33414 z m 1.997765,0 c -0.184846,-7.4e-4 -0.334875,0.1493 -0.334152,0.33414 v 1.15264 c -0.196503,0.11662 -0.33025,0.33085 -0.330253,0.57273 -10e-6,0.36372 0.301983,0.66571 0.665706,0.66571 0.363721,0 0.663113,-0.30199 0.663105,-0.66571 -4e-6,-0.24385 -0.134444,-0.45998 -0.332854,-0.57599 v -1.14938 c 7.32e-4,-0.18382 -0.147722,-0.33344 -0.331552,-0.33414 z m -10.4842017,0.49862 h 2.6608701 v 0.66636 H 2.6363503 Z m 15.6024577,1.16758 c -0.18383,-7.3e-4 -0.333436,0.14773 -0.334153,0.33155 -7.32e-4,0.18486 0.149307,0.33488 0.334153,0.33416 h 0.331553 c 0.184846,7.3e-4 0.334876,-0.1493 0.334152,-0.33416 -7.32e-4,-0.18382 -0.150322,-0.33226 -0.334152,-0.33155 z m 2.036771,0.99726 h 0.665704 v 0.66571 h -0.331551 c -0.187772,0 -0.334154,-0.14638 -0.334153,-0.33415 z m -14.8112822,2.49509 c -3.7e-6,0.6947 -0.5169922,1.16759 -1.1643335,1.16759 -0.6473413,0 -1.1649834,-0.45781 -1.1649834,-1.16759 0,-0.70977 0.4795005,-1.16432 1.1496988,-1.16432 0.6701983,0 1.1796219,0.46963 1.1796181,1.16432 z m 2.9956577,0 c -2.5e-6,0.64733 -0.5169903,1.16759 -1.1643334,1.16759 -0.6473393,0 -1.16498,-0.52026 -1.1649825,-1.16759 -2.5e-6,-0.63724 0.5012902,-1.14851 1.1497051,-1.16432 0.6626256,0 1.1796146,0.51697 1.1796108,1.16432 z m 10.6512775,0 c -3e-6,0.64733 -0.476409,1.16759 -1.164333,1.16759 -0.687925,0 -1.164984,-0.49113 -1.164984,-1.16759 0,-0.67645 0.478305,-1.16368 1.134768,-1.16368 0.656464,0 1.194553,0.51633 1.194549,1.16368 z m -2.57572,-1.16236 c -0.179698,0.21751 -0.309617,0.47674 -0.37381,0.76061 h -0.544757 c -0.187765,0 -0.334152,-0.14638 -0.334152,-0.33415 l -1.4e-5,-0.42713 z m -12.2485499,0.66439 c -0.2670076,0.006 -0.4862741,0.23081 -0.4862774,0.49927 -6.7e-6,0.27275 0.2265427,0.49929 0.4992786,0.49929 0.2727359,0 0.4992853,-0.22654 0.4992786,-0.49929 -3.3e-6,-0.27273 -0.226546,-0.49927 -0.4992786,-0.49927 -0.00426,0 -0.00876,-1.2e-4 -0.013014,0 z m 2.9956712,0 c -0.267007,0.006 -0.4862731,0.23081 -0.4862769,0.49927 -7.6e-6,0.27275 0.2265413,0.49929 0.4992786,0.49929 0.2727372,0 0.4992861,-0.22654 0.4992786,-0.49929 -3.8e-6,-0.27273 -0.2265476,-0.49927 -0.4992786,-0.49927 -0.00428,0 -0.00881,-1.2e-4 -0.012995,0 z m 10.1650007,0.49927 c -8e-6,0.27275 0.226541,0.49929 0.499278,0.49929 0.272738,0 0.499287,-0.22654 0.499279,-0.49929 -4e-6,-0.27273 -0.226548,-0.49927 -0.50578,-0.49927 -0.273507,0.006 -0.492773,0.23081 -0.492777,0.49927 z"
       sodipodi:nodetypes="ccccccscscsccccccccsccccccccccccccccsccsssscscscscscscsssccccssccccsssssscccccsccccccccccscccssssssssscccccccccccccccccccccccccccccccsccsccsccccccccccsccsccsccccccccccccccccsccsccscccccccccccccccccsssscssscccccsccsssscssccccssssccccccccccccccccccscccccssscccscccssccsccccccsccscccccssczzzzzssscsszzzscsscccssssssssssscssscscs" />
  </g>
</svg>
